<svg id="Capa_1" enable-background="new 0 0 512 512" height="512" viewBox="0 0 512 512" width="512" xmlns="http://www.w3.org/2000/svg"><g><path d="m467.553 137.933-32.476-9.888-15.205-37.031-28.872 23h-23.833c-11.016 0-21.855-3.562-31.289-9.348-7.559-4.658-15.791-8.203-24.492-10.547-22.119-5.977-46.831-3.325-67.266 7.295-8.54 4.424-18.105 6.768-27.217 6.768l-142.606-6.489c-39.58-.001-74.297 37.06-74.297 79.321v240h42.173l47.827-135h155.966c13.759 89.29 31.765 131.999 32.637 135h45.249l36.533-188.188 134.857-6.797 16.758-44.092-41.708-22.749z"/><path d="m111.196 316.014-14.068 39.71c3.159 14.7 7.476 32.413 13.555 54.304l3.062 10.986h67.255l-15-60 33.75-45z"/><path d="m378.86 295.087-18.657 96.11 28.849 29.817h61.948z"/></g></svg>